<svg width="500" height="500" viewBox="0 0 500 500" fill="none" xmlns="http://www.w3.org/2000/svg">
<g clip-path="url(#clip0_59_504)">
<rect width="500" height="500" rx="120" fill="white"/>
<path d="M180.498 214.402C180.867 212.412 182.668 209.467 183.859 207.838C184.869 209.965 184.626 216.179 182.201 217.092C181.006 216.319 181.19 215.491 180.498 214.402Z" fill="#939495"/>
<path d="M199.572 208.026C208.196 208.134 213.77 219.508 215.769 226.866C218.018 235.143 220.836 248.221 216.852 256.332C215.018 260.068 209.901 261.618 206.148 262.695C186.376 262.918 185.09 245.653 186.199 230.262C186.936 220.018 188.569 211.177 199.572 208.026Z" fill="black"/>
<path d="M286.09 203.005C302.96 201.039 306.121 225.235 306.067 237.135C306.025 246.124 303.799 253.28 294.23 255.595C270.525 257.829 266.257 212.92 286.09 203.005Z" fill="black"/>
<path d="M336.691 75C338.213 75.39 339.168 75.6066 339.754 77.0166C338.996 79.4929 335.357 81.364 333.155 82.7217C337.313 81.2484 337.495 80.4055 341.376 81.1572C343.276 80.0234 341.619 79.9419 343.069 77.6045C346.334 79.0086 343.332 81.5422 344.363 83.583C344.834 85.0554 349.448 88.201 349.483 89.4834C349.595 93.3774 349.513 95.9262 352.065 99.4326C354.345 102.564 352.03 105.338 352.182 106.464C353.051 114.813 358.829 129.229 356.453 137.66C353.77 147.175 360.829 149.791 355.437 157.316C355.174 165.019 358.818 167.101 353.991 173.496C355.229 180.873 353.284 188.591 354.224 195.266L354.335 196.017C354.78 199.159 360.43 203.658 361.916 207.466C363.442 210.769 362.169 214.972 362.877 218.285C364.712 226.852 368.861 235.48 368.739 244.356C368.684 248.531 369.897 254.981 366.839 258.062C364.742 258.641 364.019 258.624 362.634 260.151C362.154 261.887 362.478 261.598 363.488 263.758C363.044 265.345 363.463 264.731 362.315 265.746C361.097 265.377 360.85 265.19 359.581 265.355C358.54 266.674 357.822 271.675 357.251 273.913C356.204 274.012 352.308 274.253 352.237 275.303C351.509 286.31 344.237 291.196 335.913 298.692C336.803 302.499 340.694 314.032 340.214 316.579C338.536 325.465 344.813 326.181 348.376 333.299C351.646 339.834 352.834 348.556 354.583 355.824C355.826 360.971 359.803 368.051 360.273 373.097C361.714 374.693 363.448 376.91 364.757 378.658C368.77 384.025 377.21 389.907 368.198 394.959C370.23 400.507 369.452 403.723 370.67 408.032C372.742 415.387 382.198 420.224 376.715 429.303C379.52 435.866 380.379 436.659 377.928 443.132C381.91 447.078 389.461 458.055 391.447 463.318C390.714 465.22 389.633 467.418 388.769 469.298C390.674 473.198 395.936 483.238 392.908 486.75C392.84 486.604 395.445 492.434 394.864 491.737C398.038 495.552 403.416 499.821 405.539 504.419C409.314 512.589 398.21 514.995 407.353 520.199C407.893 520.507 408.152 523.382 408.369 524.009C408.951 527.298 413.676 528.016 416.041 529.875C421.55 533.366 426.286 545.614 426.807 551.965C427.029 554.688 424.972 553.961 425.968 556.441C429.844 566.127 432.603 567.492 434.999 578.082C433.832 581.391 433.154 583.423 431.512 586.484C432.194 592.073 433.27 598.92 433.422 604.508C433.518 607.863 429.874 612.622 429.258 615.558C428.576 618.801 428.13 622.965 427.6 626.36C427.099 629.553 425.27 633.651 424.744 636.021C423.819 640.224 420.873 642.701 420.397 644.464C419.468 647.905 420.16 653.882 417.688 657.277C415.293 658.485 414.55 658.809 413.271 661.274C410.401 666.827 407.571 673.229 408.106 679.555C405.468 683.046 404.139 685.208 401.945 688.957C393.439 692.029 396.027 691.635 393.07 698.916C392.853 699.447 390.563 700.564 389.562 701.69L390.25 702.857C388.582 706.849 380.025 709.254 376.022 709.845C372.596 710.355 370.938 709.517 368.062 708.062C359.284 710.28 359.844 710.219 351.005 708.754C346.289 707.976 338.303 707.44 333.465 707.299C331.478 711.189 327.939 718.389 324.32 720.173C322.544 721.052 316.859 722.744 315.231 722.012C311.733 720.44 312.239 723.3 308.811 723.962C302.071 725.27 295.581 724.028 288.779 723.134C284.265 717.394 283.431 719.541 275.562 718.374C272.357 715.469 270.913 713.801 268.189 710.426C262.867 718.965 260.264 718.47 250.848 719.582C250.476 718.764 250.077 717.96 249.652 717.172C244.599 707.956 228.724 703.251 218.831 701.771C215.292 701.24 210.792 701.816 207.299 700.831C206.443 699.593 206.556 696.769 206.478 695.106C211.655 685.886 207.097 685.587 215.939 679.666C217.435 672.663 217.829 657.474 216.926 650.405C215.117 648.758 214.399 647.849 212.909 645.984C210.656 631.943 211.801 618.412 206.563 604.927C205.189 601.39 206.357 590.875 204.285 586.161C202.594 582.316 201.219 577.162 199.624 573.176C198.094 564.177 199.119 562.504 195.57 553.713C195.499 558.528 195.236 565.369 195.764 569.957C197.222 580.32 201.245 590.603 203.11 600.829C207.218 623.338 209.854 646.176 213.787 668.681C216.434 683.823 200.834 681.02 203.356 700.401C198.357 700.452 193.021 700.786 188.081 700.649C182.809 700.508 178.683 699.295 173.202 699.795C167.323 696.364 164.975 693.732 164.812 686.729C164.465 671.85 154.133 682.995 148.909 682.223C140.776 681.025 138.275 684.198 130.799 685.744C121.746 687.614 117.508 687.816 109.93 693.93C119.828 701.084 128.901 698.592 140.036 701.361C142.839 702.059 145.721 702.225 148.585 702.321C161.177 703.625 174.976 703.52 187.629 702.934C189.555 702.848 193.9 705.378 195.347 704.889C206.257 701.18 214.234 703.236 224.519 707.581C225.425 707.96 232.881 708.506 234.893 708.769C239.284 712.785 249.64 717.46 249.514 723.371C246.429 726.731 248.964 728.726 248.1 730.358C246.803 731.838 247.583 738.301 247.511 738.418C240.64 748.609 221.286 748.458 210.37 751.308C205.994 752.449 204.308 753.242 201.109 754.702C195.204 753.464 179.834 753.541 173.567 753.546C167.532 753.546 162.019 752.737 156.111 752.616C150.257 752.495 143.629 752.965 137.654 752.646C135.536 752.53 132.47 750.64 130.045 750.342C119.439 749.043 108.721 746.77 98.1855 744.896C95.6951 744.456 85.9481 740.671 83.0137 739.529C78.3639 737.715 73.8658 738.62 71.1416 737.145C64.735 733.668 48.7352 721.87 45.2236 715.767C43.8205 713.326 40.625 700.624 39.3857 696.814C41.2507 692.333 43.0341 688.366 44.7061 683.773C44.3194 681.757 43.8036 678.792 44.9307 676.973C48.0845 671.88 54.2621 667.418 58.459 663.067C59.6391 662.167 63.8175 656.297 64.8525 655.934C73.3185 652.932 81.2953 649.486 89.3848 645.616C94.6097 643.115 101.393 642.109 106.896 640.139C109.272 639.855 117.11 636.349 119.102 636.471C126.033 636.9 127.929 636.157 134.254 633.373C135.473 632.837 141.132 634.479 143.419 633.489C143.84 631.62 144.836 627.305 144.046 625.693L139.551 624.278C136.403 617.75 137.665 613.693 136.394 607.867C133.333 593.841 129.453 581.715 134.112 567.254C135.944 561.57 139.804 560.373 141.557 555.265C142.372 552.885 139.033 551.92 137.979 549.954C135.646 545.609 139.397 540.102 141.251 536.353C142.68 533.468 142.208 531.239 144.965 528.829C150.119 524.322 156.692 522.579 160.538 516.48C162.793 512.903 160.314 510.285 161.47 506.526C162.777 502.272 166.692 499.296 170.327 497.153C171.366 493.687 173.775 488.15 175.201 484.537L173.326 479.222C175.574 469.702 181.23 461.891 172.678 454.41C170.171 444.199 172.339 445.075 173.101 435.207C173.282 432.86 168.935 417.417 168.619 413.572C168.567 412.933 167.485 411.882 166.701 411.634C160.357 409.624 164.364 395.669 161.943 389.96C161.621 388.02 157.382 387.327 156.937 385.562C155.786 380.996 160.078 372.747 161.531 368.41L160.079 362.893C161.196 357.879 163.721 355.269 165.198 350.571C166.318 347.008 165.558 342.072 166.94 338.42C167.633 336.01 171.582 331.684 171.942 329.468C173.147 322.057 172.073 317.733 174.055 310.131C170.007 307.287 171.202 306.995 168.139 303.274C165.127 299.618 161.094 296.034 157.413 293.031C154.836 291.307 151.107 291.501 148.675 289.515C145.503 286.924 145.778 285.41 145.29 281.764C145.017 279.722 140.461 277.481 138.643 276.42C136.247 269.142 129.69 259.682 128.411 251.621C128.886 248.914 130.432 246.562 130.283 243.714C129.996 238.215 131.202 236.744 135.556 234.964C137.254 227.119 138.585 222.748 143.133 216.049C142.595 211.969 142.687 210.408 143.118 206.326C142.565 205.249 139.649 199.668 139.604 198.895C139.064 189.419 137.261 179.943 136.062 170.511C135.468 165.829 132.873 161.212 132.167 156.577C131.705 153.541 131.892 150.118 131.52 147.048C129.713 135.65 132.206 117.762 125.859 107.913C126.832 101.197 127.738 98.0853 131.227 92.3223C134.248 90.6418 135.091 90.4085 138.45 89.4551C154.92 93.6206 177.914 120.849 189.501 133.043C191.238 134.896 196.013 137.315 197.429 139.146C205.908 150.113 210.962 156.003 223.962 162.338L224.646 162.176C224.67 162.17 225.646 161.956 225.676 161.939C227.802 160.665 231.69 162.095 232.535 161.882C239.619 160.098 246.674 157.193 253.961 156.281C258.836 155.671 267.256 157.016 271.536 156.025C280.676 148.14 291.614 124.166 300.148 114.348C301.819 112.426 300.691 110.325 301.045 108.184C302.427 99.8348 310.163 95.4944 316.229 90.7041C320.091 87.5109 323.934 83.9895 327.544 80.8135L327.62 79.3271C329.035 77.0236 333.958 75.8953 336.691 75ZM273.532 627.108C271.51 632.192 268.978 657.156 269.673 662.588C268.631 663.831 267.554 665.185 266.408 666.321C266.278 671.414 265.542 677.867 266.049 682.769C266.12 683.447 268.249 687.013 268.749 687.856C270.193 686.406 271.731 684.455 273.165 683.202C274.462 674.032 271.888 670.793 272.143 662.128C272.49 650.28 276.161 639.043 273.532 627.108ZM323.533 658.91C323.218 661.659 322.92 665.196 323.908 667.823L324.9 668.035C325.619 664.706 325.868 662.876 324.764 659.577C324.41 659.375 323.893 659.036 323.533 658.91ZM332.57 617.246C331.072 619.944 329.803 621.768 327.871 624.173C326.839 625.457 328.146 629.408 328.3 631.166L328.337 631.631C326.669 633.025 325.711 633.839 324.198 635.445C323.777 642.16 324.275 643.111 326.479 649.517C330.785 644.09 329.674 638.532 329.137 631.499C330.189 626.725 331.334 621.975 332.57 617.246ZM274.023 609.96C271.663 613.178 271.777 616.645 273.612 620.182C273.879 618.085 275.205 611.679 274.559 610.395L274.023 609.96ZM333.118 601.724C332.056 604.715 331.215 608.985 332.092 612.062L332.919 612.733C335.169 611 335.381 605.311 334.511 602.79C333.88 601.921 334.171 602.234 333.118 601.724ZM201.524 194.387C190.579 197.49 191.357 198.678 183.859 207.187C182.668 208.815 180.867 211.76 180.498 213.75C180.352 214.033 180.212 214.32 180.078 214.609C173.035 229.987 174.342 261.908 192.45 269.965C208.939 277.301 220.539 267.71 224.223 251.555C224.747 249.891 227.021 247.627 227.383 246.038C232.437 223.81 223.333 202.452 201.524 194.387ZM311.826 206.696C302.627 198.078 299.26 187.972 284.902 189.261L284.528 189.678C281.603 192.878 278.358 194.953 275.619 198.194C267.697 207.82 264.766 220.295 265.105 232.593C265.385 242.72 269.925 248.893 275 256.938C281.15 266.686 285.594 269.441 297.355 266.481C310.254 262.223 316.885 242.742 317.708 230.453C318.125 224.229 316.375 210.958 311.826 206.696Z" fill="black"/>
<path d="M338.871 295.63C339.542 295.072 340.383 294.513 341.104 294C347.264 295.689 352.057 298.433 354.747 304.556C360.137 313.081 357.457 325.32 358.223 334.693C358.924 343.285 362.936 351.64 361.534 360.479C361.146 363.032 358.228 366.749 358.049 368.57C355.975 370.058 355.095 371.989 353.106 373.443C343.102 380.764 332.799 385.918 321.185 390.162C319.385 390.626 317.44 391.226 315.607 391.351L314.856 391.652C311.397 392.453 306.85 394.134 304.062 394.635C296.95 396.773 256.428 404.303 250.788 402.464L250.075 402.384L231.775 403.109C226.396 402.096 219.8 401.943 214.42 400.85C195.915 397.093 173.767 391.677 158.725 380.082C156.409 377.259 154.492 377.604 152.292 372.361C148.71 363.822 150.68 346.489 154.443 338.23C152.711 331.522 152.972 325.859 154.901 319.219C157.675 309.667 160.302 306.729 168.671 302.004C172.122 304.608 170.648 306.644 172.316 309.929C173.019 311.314 173.959 309.313 175.748 311.8L175.97 314.1C179.598 316.861 189.767 319.665 194.39 320.575C238.255 333.792 295.544 328.724 336.037 306.996C334.933 304.131 334.655 302.446 334.063 299.41C335.684 298.173 337.29 296.912 338.871 295.63Z" fill="#CE871C"/>
<path d="M341.686 379.164C343.495 376.991 345.628 375.728 347.826 373.095L346.926 371.47C347.294 369.943 346.886 370.483 347.935 369.637L349.298 369.859L349.512 369.543L349.178 368.338C348.005 368.027 347.94 368.125 347.105 367.288C346.757 364.875 350.272 359.697 350.412 357.05C350.546 354.473 347.488 355.507 347.438 352.494L348.88 351.349C347.781 350.881 347.379 350.48 346.638 349.539C345.479 350.403 346.011 352.909 344.221 354.719L343.306 354.534C342.73 353.852 340.955 352.123 340.791 351.261C340.701 350.783 349.362 339.093 350.133 335.753C350.655 333.479 348.776 330.598 348.651 328.255C348.517 325.732 350.163 322.975 350.347 320.365C350.521 317.884 349.82 315.417 349.85 312.938C349.885 309.857 352.097 307.903 354.141 305.873L353.962 304.867L354.747 304.556C360.137 313.081 357.457 325.32 358.223 334.693C358.924 343.285 362.936 351.64 361.534 360.479C361.146 363.032 358.228 366.749 358.049 368.57C355.975 370.058 355.095 371.989 353.106 373.443C343.103 380.764 332.799 385.918 321.185 390.162C319.385 390.626 317.44 391.226 315.607 391.351L315.415 390.924C316.948 390.202 318.134 388.776 319.897 387.6L319.063 389.475C321.076 389.474 323.477 388.479 324.636 386.769C325.174 383.447 324.319 386.594 323.614 384.614C327.501 381.238 336.599 379.844 341.686 379.164Z" fill="#A67B1F"/>
<path d="M168.671 302.004C172.122 304.608 170.648 306.644 172.316 309.929C173.019 311.314 173.959 309.313 175.748 311.8L175.97 314.1C179.598 316.861 189.767 319.665 194.39 320.575C188.059 322.885 185.897 324.712 180.993 318.606L180.478 317.973L180.174 317.588C175.445 316.342 177.497 317.754 174.418 314.724L173.002 314.562L172.832 315.109L173.937 317.118C172.332 316.998 167.477 312.818 166.032 311.468C165.733 309.56 165.65 307.101 166.509 305.326C168.125 304.952 168.68 305.163 169.403 304.151L168.627 303.564C157.495 306.249 152.653 325.209 154.542 335.25C155.745 341.65 155.096 338.008 152.977 344.165C152.146 346.581 152.4 352.229 151.645 354.907C149.212 372.129 155.035 377.885 169.669 385.766C173.932 388.061 186.873 393.611 191.288 394.053L192.45 393.503L193.12 391.621C193.373 393.187 193.119 393.395 194.024 394.303C194.647 394.05 195.085 393.914 195.759 393.797L194.817 395.151C195.882 395.372 200.267 396.317 200.971 396.101C207.165 394.207 208.324 393.378 214.165 398.795C216.444 399.149 218.086 398.873 220.351 398.64L220.502 398.306C222.826 398.874 222.824 399.223 223.828 396.751L224.807 396.692C225.349 397.861 225.347 398.076 225.601 399.306L226.302 399.374L227.235 398.581C229.593 399.915 230.283 399.865 232.887 400.041C233.908 400.828 233.815 400.888 234.341 402.099C238.466 402.138 246.674 400.414 250.075 402.384L231.775 403.109C226.396 402.096 219.8 401.943 214.42 400.85C195.915 397.093 173.767 391.677 158.725 380.082C156.409 377.259 154.492 377.604 152.292 372.361C148.71 363.822 150.68 346.489 154.443 338.23C152.711 331.522 152.972 325.859 154.901 319.219C157.675 309.667 160.302 306.729 168.671 302.004Z" fill="#7E6225"/>
<path d="M250.789 402.464C252.782 401.303 253.938 402.328 255.625 401.449C255.932 401.288 255.89 399.074 257.334 398.829C258.931 398.558 260.847 398.82 262.209 398.251C263.35 397.774 262.258 396.561 263.816 395.68L269.261 400.047C273.86 400.996 292.837 388.627 299.603 394.837C301.678 396.741 304.297 390.658 306.977 390.355C307.419 391.179 307.591 391.49 308.142 392.24C309.993 391.839 313.722 390.918 315.415 390.924L315.607 391.351L314.856 391.652C311.397 392.453 306.85 394.134 304.062 394.635C296.95 396.773 256.428 404.303 250.789 402.464Z" fill="#887028"/>
<path d="M334.063 299.41C335.684 298.173 337.29 296.912 338.871 295.63C338.742 300.379 340.935 297.609 342.556 301.311C342.267 303.902 338.275 305.719 336.037 306.996C334.933 304.131 334.655 302.446 334.063 299.41Z" fill="#9B7420"/>
<path d="M220.502 398.306L220.199 396.74C221.645 395.067 225.473 394.003 227.493 395.211L227.392 396.099C228.549 396.258 228.235 396.178 229.466 395.867L229.773 396.353C228.724 397.149 227.757 397.414 227.235 398.581L226.301 399.374L225.601 399.306C225.347 398.076 225.349 397.861 224.807 396.692L223.828 396.751C222.823 399.223 222.826 398.874 220.502 398.306Z" fill="#887028"/>
<path d="M339.806 326.501C342.177 327.344 347.637 334.541 347.06 337.209L346.384 337.523C344.773 336.765 343.51 336.057 341.969 335.188C341.636 335.376 341.287 335.569 340.964 335.766C342.028 337.413 342.098 337.65 342.406 339.592C341.655 340.404 341.278 340.639 340.402 341.296C338.264 340.675 337.399 340.974 335.207 341.298L334.481 340.418C334.073 337.951 334.734 330.384 337.568 329.7L338.936 330.62L339.373 329.946L338.657 330.408L339.458 329.621C339.527 328.561 339.672 327.552 339.806 326.501Z" fill="#A67B1F"/>
<path d="M256.738 386.838C257.023 387.067 258.799 389.284 259.205 389.758C259.105 391.038 258.521 391.577 257.692 392.601C257.081 393.356 257.1 394.748 256.932 395.909C255.383 395.964 255.91 395.987 254.382 395.105C253.179 392.021 255.846 390.572 256.738 386.838Z" fill="#887028"/>
<path d="M252.728 373.863L254.834 375.368C255.634 374.919 255.979 374.599 256.658 373.99L257.157 374.632C257.848 378.937 255.152 376.331 254.038 378.721C255.897 381.075 255.974 380.66 258.498 379.69C258.998 379.24 259.033 379.328 259.714 379.071L259.914 379.729C258.86 381.125 257.728 382.01 255.999 382.036C254.651 379.598 253.411 380.733 252.329 378.889C252.693 377.03 252.675 375.736 252.728 373.863Z" fill="#887028"/>
<path d="M270.529 376.657L270.867 377.354C270.142 381.813 266.922 379.099 264.891 382.946L264.628 383.453C263.442 382.991 263.036 381.858 262.216 380.6L261.903 380.296L262.407 379.701C263.275 380.041 262.979 379.977 263.929 380.072L263.911 378.099L264.595 377.763C265.535 378.157 265.795 378.448 266.479 379.198C268.171 378.988 269.167 377.817 270.529 376.657Z" fill="#887028"/>
<path d="M180.658 342.561L181.656 343.223C181.973 345.089 181.286 349.765 181.301 352.551C180.735 352.249 181.006 352.421 180.372 351.924C179.455 351.205 179.224 349.3 179.125 348.155C178.901 345.577 179.026 344.489 180.658 342.561Z" fill="#887028"/>
<path d="M316.229 318.302C318.649 319.102 321.373 320.368 323.746 321.401L323.62 322.575C322.629 323.041 322.366 323.055 321.283 323.29C318.38 322.234 317.886 320.912 316.229 318.302Z" fill="#7E6225"/>
<path d="M333.67 355.544C337.041 356.872 333.332 357.271 335.863 361.884C334.187 360.65 333.621 360.392 332.504 358.704C332.333 356.594 332.1 357.449 333.67 355.544Z" fill="#A67B1F"/>
<path d="M310.014 327.822C311.938 328.019 311.166 327.654 312.545 328.637C312.078 330.275 312.004 329.891 310.344 331.203C308.533 331.343 309.19 331.646 308.117 330.745C308.453 329.236 308.943 328.93 310.014 327.822Z" fill="#7E6225"/>
<path d="M314.454 365.787C315.39 365.86 316.815 366.1 317.787 366.233L318.196 366.911L317.256 367.793L317.087 367.025C315.641 367.403 314.848 368.231 313.039 368.683C313.219 367.042 313.354 367.339 314.454 365.787Z" fill="#7E6225"/>
<path d="M315.607 391.351C317.44 391.226 319.385 390.626 321.185 390.162C321.428 392.882 321.448 393.784 322.325 396.392C323.674 403.379 323.977 412.39 325.267 418.466C327.016 426.528 327.599 435.441 328.777 443.664C331.268 461.057 333.307 479.105 335.142 496.6C335.58 500.851 335.848 505.117 335.943 509.388C335.982 512.073 335.853 516.035 336.032 518.586C336.122 519.809 338.076 523.388 338.628 525.606C338.588 529.598 340.293 536.071 341.661 539.89C343.093 543.882 344.097 544.807 340.935 549.301L340.492 548.735C340.119 545.931 337.728 540.481 337.012 537.389C336.42 534.823 336.251 532.611 335.475 530.125L334.938 530.568C333.541 528.102 334.695 524.199 331.582 522.593C330.033 523.692 330.507 523.368 329.59 525.303L328.421 523.165C327.864 522.051 327.678 521.38 326.621 520.728L325.72 520.873C324.405 522.981 324.73 522.941 324.662 525.745C326.605 530.876 334.371 561.9 332.946 565.022C332.038 567.016 330.37 567.961 328.395 568.696C326.608 567.528 326.646 567.076 325.062 567.289L323.978 568.99C322.213 569.542 320.417 570.417 318.651 570.849C318.084 570.988 316.991 571.147 316.543 570.74C314.478 568.846 310.542 538.155 310.254 533.59C309.129 530.607 310.664 528.047 307.607 523.165L306.719 522.15C303.731 523.274 305.344 524.413 302.885 524.855L301.53 524.144C299.812 525.825 302.512 534.878 303.126 537.295C301.345 537.066 301.956 537.483 301.007 536.395C301.118 533.854 300.912 533.337 299.802 531.055L298.08 527.803L296.835 526.277C295.216 525.541 293.744 526.018 291.904 526.297C290.318 526.993 288.658 527.44 287.82 528.877C287.618 530.17 287.384 533.287 286.793 534.122C286.189 533.571 281.308 524.964 280.804 523.871L280.483 523.955C280.557 525.104 280.489 525.059 281.116 526.004L280.708 526.719C278.675 526.635 277.258 525.889 275.358 525.128C275.408 527.719 276.622 526.183 274.377 529.195C274.314 529.28 274.766 532.258 273.998 533.849L273.271 534.167C271.714 532.064 274.199 529.26 271.316 527.54C267.698 528.022 267.621 529.872 265.603 528.052C264.218 526.799 264.035 526.302 262.391 525.372C258.961 525.874 259.549 529.449 257.145 531.562C255.853 530.901 255.831 530.593 254.675 530.771C253.914 533.247 255.109 534.853 257.451 535.659C258.245 535.127 258.002 535.356 258.604 534.57L258.607 535.132C258.627 536.534 258.47 537.255 259.251 538.388L260.65 538.786C260.538 541.332 260.014 540.606 259.338 542.465C258.603 542.217 258.365 541.963 257.586 542.077C257.216 540.452 256.999 538.453 255.895 537.319C254.158 537.135 255.02 537.041 253.272 537.906C252.462 535.753 253.263 532.666 253.637 530.274C252.065 528.803 250.01 526.545 247.973 526.292L246.91 527.217L246.478 527.669C245.012 525.77 244.498 526.048 242.363 525.8C241.694 524.855 241.502 523.881 241.167 522.762C240.889 521.31 241.455 520.41 242.018 519.008L239.102 517.641C238.088 516.144 238.217 513.499 237.946 511.575C237.477 506.927 237.714 497.495 237.671 492.185C237.495 470.205 236.685 446.86 237.736 424.98C237.744 422.536 237.783 420.092 237.85 417.649L237.768 414.632L237.953 403.389C235.339 403.462 234.397 403.488 231.775 403.109L250.075 402.384L250.788 402.464C256.428 404.303 296.95 396.773 304.062 394.635C306.85 394.134 311.397 392.453 314.856 391.652L315.607 391.351Z" fill="#CE751C"/>
<path d="M315.607 391.351C317.44 391.226 319.385 390.626 321.185 390.162C321.428 392.882 321.448 393.784 322.325 396.392C314.102 393.529 317.164 398.447 312.244 398.815L310.825 397.592C310.541 398.067 310.385 398.224 310.235 398.742L308.404 399.978L308.118 399.558L305.064 399.373C305.988 397.259 306.034 397.288 304.858 395.309L304.103 395.104C296.965 398.75 279.97 399.428 271.734 402.191C270.001 402.772 266.292 401.928 264.687 403.049C264.636 404.772 264.347 404.776 265.099 405.963C268.177 405.436 268.031 403.557 269.853 404.321C269.777 405.232 269.555 405.923 269.886 406.622L270.584 406.594C272.148 404.888 272.977 403.228 274.901 402.695C274.476 403.805 274.051 404.53 273.488 405.558L273.881 406.282C277.608 406.499 280.866 403.086 284.822 402.952C285.375 402.933 287.298 400.665 289.253 400.547L289.718 401.127C287.358 403.587 287.621 403.01 287.543 406.589L286.554 406.976C285.58 406.05 285.66 406.104 285.267 404.805C283.427 406.11 282.158 407.142 280.052 407.995L277.313 407.405C275.435 406.99 274.249 406.975 272.359 406.898C269.78 408.36 270.001 408.62 266.995 407.71C266.215 407.473 263.043 409.61 262.119 410.175C256.891 406.993 254.648 408.182 249.95 411.741C249.027 410.423 248.429 409.452 247.63 408.055C245.864 408.492 245.413 410.149 242.754 410.852C241.507 410.585 240.257 410.328 239.006 410.079C238.251 410.836 238.439 410.374 238.282 411.409L237.768 414.632L237.953 403.389C235.339 403.462 234.397 403.488 231.775 403.109L250.075 402.384L250.788 402.464C256.428 404.303 296.95 396.773 304.062 394.635C306.85 394.134 311.397 392.453 314.856 391.652L315.607 391.351Z" fill="#9B7420"/>
<path d="M287.543 406.589C290.882 403.562 289.277 400.475 293.16 400.002L293.496 400.665C292.761 401.93 292.603 401.916 291.419 402.72L291.489 402.678L291.158 403.597L295.19 402.957L295.222 403.421C292.906 405.041 290.723 404.931 289.757 406.283L290.474 407.621C290.15 407.877 283.219 410.765 282.833 410.743C280.066 410.586 275.55 408.527 272.848 409.878C272.192 412.263 272.651 412.778 271.102 413.824C266.922 413.029 267.986 408.046 263.386 411.174L262.848 411.547C259.286 411.522 258.494 409.795 255.402 410.188C254.467 411.404 254.149 411.542 252.726 412.114L253.762 412.521C251.536 412.666 250.241 414.614 248.382 412.376C247.627 411.468 246.819 411.333 245.735 411.128C243.531 411.752 240.528 411.902 238.282 411.409C238.439 410.374 238.25 410.836 239.006 410.079C240.257 410.328 241.507 410.585 242.754 410.852C245.413 410.149 245.864 408.492 247.63 408.055C248.428 409.452 249.027 410.423 249.95 411.741C254.648 408.182 256.891 406.993 262.119 410.175C263.043 409.61 266.215 407.473 266.995 407.71C270.001 408.62 269.78 408.36 272.359 406.898C274.249 406.975 275.435 406.99 277.313 407.405L280.052 407.995C282.158 407.142 283.427 406.11 285.267 404.805C285.66 406.104 285.58 406.05 286.554 406.976L287.543 406.589Z" fill="#A67B1F"/>
<path d="M310.235 398.742C310.385 398.224 310.541 398.067 310.826 397.592L312.245 398.815C317.165 398.447 314.102 393.529 322.325 396.392C323.674 403.379 323.977 412.39 325.267 418.466C323.253 419.061 324.394 420.063 322.208 420.139L321.65 419.422C321.712 419.268 321.774 419.116 321.835 418.963L322.101 418.255C324.243 412.701 319.806 413.493 320.187 408.678C320.423 405.701 320.386 404.92 318.189 402.645C315.104 401.662 315.313 401.793 314.543 398.873L313.226 399.87C311.543 399.962 312.306 400.176 310.894 399.092L310.776 399.55L310.235 398.742Z" fill="#A67B1F"/>
<path d="M238.282 411.409C240.528 411.902 243.532 411.752 245.735 411.128C246.732 411.926 247.12 411.915 247.273 412.853L248.537 415.164L248.158 416.098L248.615 415.538L248.851 416.482C246.721 415.194 246.743 414.651 244.251 416.022L241.106 417.13C239.865 420.677 239.925 421.97 237.736 424.98C237.744 422.536 237.783 420.092 237.85 417.649L237.768 414.632L238.282 411.409Z" fill="#7E6225"/>
<path d="M238.282 411.409C240.528 411.902 243.531 411.752 245.735 411.128C246.732 411.926 247.12 411.915 247.273 412.853L246.278 412.825C245.794 413.6 245.296 414.324 244.704 415.019C241.65 414.74 242.665 411.324 239.103 414.263C238.66 415.408 238.247 416.486 237.85 417.649L237.768 414.632L238.282 411.409Z" fill="#887028"/>
<path d="M241.106 417.13L244.251 416.022L243.853 416.574C242.775 418.084 242.166 418.638 242.154 420.464C242.969 421.363 243.608 421.404 244.783 421.728L245.492 422.656C245.16 424.555 244.749 427.484 243.187 428.653C238.973 427.732 241.421 420.534 241.106 417.13Z" fill="#887028"/>
<path d="M323.192 440.518C324.156 443.615 326.922 446.663 325.578 449.417C324.373 450.119 324.34 450.228 322.919 450.45L321.078 451.634L320.248 451.186C319.262 448.674 321.687 442.608 323.192 440.518Z" fill="#887028"/>
<path d="M315.703 427.876C317.895 427.693 319.631 427.747 321.17 429.457C321.542 431.53 321.457 430.835 320.314 433.128C319.305 433.683 319.843 433.484 318.589 433.456C317.093 432.045 316.489 429.864 315.703 427.876Z" fill="#7E6225"/>
<path d="M306.743 417.557C308.823 419.136 309.217 421.67 309.921 424.355C308.388 423.357 308.036 423.085 306.761 421.776C305.996 419.986 306.276 419.578 306.743 417.557Z" fill="#887028"/>
<path d="M242.661 444.523C243.871 444.836 243.391 444.52 244.157 445.488C243.791 446.568 242.559 447.149 241.533 447.843C240.967 447.966 241.012 447.866 240.359 447.684C240.504 446.556 241.812 445.433 242.661 444.523Z" fill="#887028"/>
<path d="M312.046 404.934C313.761 407.488 313.775 406.609 315.627 408.276L316.131 408.737C314.454 408.865 314.193 408.952 312.603 408.537C311.696 406.978 312.028 407.057 312.046 404.934Z" fill="#7E6225"/>
<path d="M270.999 460.159L271.291 460.586C271.285 462.16 270.482 463.289 269.728 464.685C269.411 464.373 269.204 463.824 268.981 463.379C269.094 461.925 269.977 461.279 270.999 460.159Z" fill="#7E6225"/>
</g>
<defs>
<clipPath id="clip0_59_504">
<rect width="500" height="500" rx="120" fill="white"/>
</clipPath>
</defs>
</svg>
